<svg xmlns="http://www.w3.org/2000/svg" viewBox="0 0 1280 740.77"><defs><style>.cls-1{fill:#fcfcfc;}.cls-2{fill:red;}</style></defs><g id="Layer_2" data-name="Layer 2"><path d="M593.08,638.31A129.82,129.82,0,0,0,662.89,618c1.3,1.72,2.6,3.29,3.87,4.69a70,70,0,0,0,20.35,15.58h506.65a70.78,70.78,0,0,0,19.86-14.86c9.11-9.74,20-26.83,20-52.89V530.41c0-2.63-.11-5.16-.32-7.61V395.16h2.29V250.68H1206.1V198.32H1048.21v52.36h-18.66v5.74h-14l-24.23-6A96.07,96.07,0,0,0,977,248h-.12c-4.13-.39-7.84-.58-11.35-.58a120.69,120.69,0,0,0-28.13,3.27H821.08V255a138.73,138.73,0,0,0-16.85-4.32A177.07,177.07,0,0,0,784,248.05c-5.9-.42-11.55-.64-16.8-.64a227.76,227.76,0,0,0-28,1.75,105.61,105.61,0,0,0-36.82,11.6c-1.2-1.88-2.46-3.73-3.76-5.55,12.23-16.38,18.65-35.94,18.65-57.28,0-25.85-9.4-49.11-27.21-67.27-18.09-18.45-42.14-28.2-69.55-28.2S569,112.21,550.9,130.68c-17.79,18.15-27.19,41.4-27.19,67.25,0,.13,0,.26,0,.39H154c-73.78,0-133.8,60-133.8,133.8V505.46c0,73.26,59.6,132.85,132.85,132.85h440ZM381.8,419.07a29.73,29.73,0,0,1-4.21,15.36l-4.66,7.85a31.45,31.45,0,0,1-6.6-7.85,29.73,29.73,0,0,1-4.21-15.36v-2.14A29,29,0,0,1,366.19,402l4.73-8.06a29.71,29.71,0,0,1,10.88,23Z"/><path class="cls-1" d="M580.4,197.93q0-16.37,11-27.57t29.08-11.2q18.09,0,29.08,11.2t11,27.57q0,16.38-11,27.57t-29.08,11.2q-18.09,0-29.08-11.2T580.4,197.93Z"/><path class="cls-1" d="M588.36,255H477.14a206.1,206.1,0,0,1,60.43,75.47h54V506.15h-199a87.19,87.19,0,0,1-87.08-87.08v-2.14a85.86,85.86,0,0,1,11.88-43.66H235.92a162.05,162.05,0,0,0-6,43.66v2.14A162.39,162.39,0,0,0,392.51,581.62H593.08A73.93,73.93,0,0,0,667,507.69v-174A78.65,78.65,0,0,0,588.36,255Z"/><path class="cls-1" d="M206.57,506.15H152.38V330.48H352.05a86.44,86.44,0,0,1,86.44,86.45v2.14a86.45,86.45,0,0,1-12.15,44.29h81.51A162.57,162.57,0,0,0,514,419.07v-2.14A161.91,161.91,0,0,0,352.05,255H154a77.1,77.1,0,0,0-77.1,77.11V505.46a76.15,76.15,0,0,0,76.15,76.16h114A207.15,207.15,0,0,1,206.57,506.15Z"/><path class="cls-1" d="M791.37,481.49q-.66-4.58-1-9.65t-.66-10.31q-6.54,12.77-17.83,17.83a60.32,60.32,0,0,1-25,5.08q-14.4,0-23.24-4.26A31.91,31.91,0,0,1,710,468.4a46.86,46.86,0,0,1-6.38-17.84A142.09,142.09,0,0,1,702,428.15a98.06,98.06,0,0,1,2.78-24.88,36.53,36.53,0,0,1,25.7-27.16q10.14-3.27,25.2-3.28A91.16,91.16,0,0,1,773,374.31a109.37,109.37,0,0,1,15.06,4.09V360.73c0-3.71-.17-7.26-.49-10.64a24,24,0,0,0-2.46-8.84,14.8,14.8,0,0,0-6-6.05q-4.1-2.29-11-2.29-10.47,0-15.21,5.07t-4.75,13.58a21.48,21.48,0,0,0,.33,4.58H707.91q0-18.31,5.4-28.8t13.91-15.54a48.52,48.52,0,0,1,19-6.39,169.15,169.15,0,0,1,20.94-1.31q5.9,0,12.77.5a117.48,117.48,0,0,1,13.74,1.8,81.27,81.27,0,0,1,13.42,3.76,47.11,47.11,0,0,1,11.78,6.38,25,25,0,0,1,7.37,9.49A60.9,60.9,0,0,1,830,337.65a66,66,0,0,1,1.47,12.11c.11,4,.17,7.69.17,11v90.32a113.74,113.74,0,0,0,1.14,15.71,141.51,141.51,0,0,0,2.78,14.73Zm-3.27-76.58a34,34,0,0,0-17-4.26q-13.1,0-18.66,5.57t-5.56,22.25q0,13.42,4.26,19.15t14.72,5.73a26.81,26.81,0,0,0,13.75-3.44,19.52,19.52,0,0,0,8.51-10.64Z"/><path class="cls-1" d="M877.77,481.49V307.38h44.51v19.31q6.87-12.44,18.33-17.51a60.75,60.75,0,0,1,24.87-5.08c1.75,0,3.77.12,6.06.33a42.54,42.54,0,0,1,6.05,1V344a49.22,49.22,0,0,0-18-3.6,53.15,53.15,0,0,0-13.25,1.64,34.25,34.25,0,0,0-11.62,5.4,31.57,31.57,0,0,0-8.67,9.49,28.31,28.31,0,0,0-3.77,13.58v111Z"/><path class="cls-1" d="M1010.65,481.49V313.11h44.83V481.49Z"/><path class="cls-1" d="M1176.57,482.15q-5.57,1-12.92,1.63t-15.22.66q-12.77,0-21.27-3.27a35.43,35.43,0,0,1-13.42-8.51,29.27,29.27,0,0,1-6.88-12,49.22,49.22,0,0,1-2-13.91V338.47h-18.66V307.38h18.66V255h44.51v52.37h29.46v31.09h-29.46V434c0,5.45.87,9.93,2.62,13.41s5.78,5.24,12.11,5.24q2.94,0,6.54-.33a31.73,31.73,0,0,0,5.89-1Z"/><path class="cls-2" d="M708.89,584.79q-4.47-5-4.47-14.23v-4.37h11.34v5.24q0,7.43,6.22,7.42a5.87,5.87,0,0,0,4.64-1.8q1.57-1.8,1.58-5.84a16.18,16.18,0,0,0-2.18-8.45q-2.19-3.66-8.08-8.79-7.41-6.54-10.36-11.83a24.19,24.19,0,0,1-3-11.95q0-9.06,4.59-14t13.31-5q8.61,0,13,5T740,530.41v3.16H728.63v-3.92c0-2.62-.5-4.53-1.52-5.73a5.55,5.55,0,0,0-4.48-1.8q-6,0-6,7.31a14.42,14.42,0,0,0,2.24,7.74q2.24,3.6,8.13,8.73,7.53,6.54,10.36,11.89a26.44,26.44,0,0,1,2.84,12.55q0,9.38-4.64,14.4t-13.47,5Q713.36,589.76,708.89,584.79Z"/><path class="cls-2" d="M805.54,523.21H793V512.3h37.09v10.91H817.55v65.46h-12Z"/><path class="cls-2" d="M889.11,584.79q-4.58-5-4.58-14.23V512.3h12v59.13q0,3.93,1.58,5.67a6.74,6.74,0,0,0,9.06,0q1.58-1.74,1.58-5.67V512.3h11.56v58.26q0,9.27-4.58,14.23t-13.31,5Q893.69,589.76,889.11,584.79Z"/><path class="cls-2" d="M977.91,512.3h18.33q8.94,0,13.42,4.8t4.47,14.07v38.62q0,9.27-4.47,14.08t-13.42,4.8H977.91ZM996,577.76a5.77,5.77,0,0,0,4.53-1.75q1.58-1.74,1.58-5.67V530.63q0-3.93-1.58-5.68a5.8,5.8,0,0,0-4.53-1.74h-6.11v54.55Z"/><path class="cls-2" d="M1071.3,512.3h12v76.37h-12Z"/><path class="cls-2" d="M1145.15,584.74q-4.7-5-4.69-14.18V530.41q0-9.17,4.69-14.18t13.53-5q8.83,0,13.53,5t4.69,14.18v40.15q0,9.16-4.69,14.18t-13.53,5Q1149.84,589.76,1145.15,584.74Zm19.75-13.42V529.65q0-7.53-6.22-7.53t-6.22,7.53v41.67q0,7.53,6.22,7.53T1164.9,571.32Z"/></g></svg>