<svg xmlns="http://www.w3.org/2000/svg" viewBox="0 0 1280 1024"><defs><style>.cls-1{fill:#3d3d3d;}.cls-2{fill:#fcfcfc;}.cls-3{font-size:109.09px;fill:red;font-family:BebasNeue-Regular, Bebas Neue;letter-spacing:0.45em;}</style></defs><g id="Layer_2" data-name="Layer 2"><rect class="cls-1" width="1280" height="1024"/><path class="cls-2" d="M580.4,288.57q0-16.36,11-27.57t29.08-11.2q18.09,0,29.08,11.2t11,27.57q0,16.38-11,27.57t-29.08,11.21q-18.09,0-29.08-11.21T580.4,288.57Z"/><path class="cls-2" d="M588.36,345.65H477.14a206.1,206.1,0,0,1,60.43,75.47h54V596.79h-199a87.19,87.19,0,0,1-87.08-87.08v-2.14a85.86,85.86,0,0,1,11.88-43.66H235.92a162.05,162.05,0,0,0-6,43.66v2.14A162.39,162.39,0,0,0,392.51,672.26H593.08A73.93,73.93,0,0,0,667,598.33v-174A78.65,78.65,0,0,0,588.36,345.65Z"/><path class="cls-2" d="M206.57,596.79H152.38V421.12H352.05a86.44,86.44,0,0,1,86.44,86.45v2.14A86.45,86.45,0,0,1,426.34,554h81.51A162.57,162.57,0,0,0,514,509.71v-2.14A161.91,161.91,0,0,0,352.05,345.65H154a77.1,77.1,0,0,0-77.1,77.11V596.1a76.15,76.15,0,0,0,76.15,76.16h114A207.15,207.15,0,0,1,206.57,596.79Z"/><path class="cls-2" d="M791.37,572.13q-.66-4.57-1-9.65t-.66-10.31Q783.19,564.93,771.9,570a60.47,60.47,0,0,1-25,5.07q-14.4,0-23.24-4.26A31.91,31.91,0,0,1,710,559a46.88,46.88,0,0,1-6.38-17.83A142.31,142.31,0,0,1,702,518.79a98.06,98.06,0,0,1,2.78-24.88,36.53,36.53,0,0,1,25.7-27.16q10.14-3.27,25.2-3.28A91.16,91.16,0,0,1,773,465,109.37,109.37,0,0,1,788.1,469V451.37c0-3.71-.17-7.26-.49-10.64a24,24,0,0,0-2.46-8.84,14.8,14.8,0,0,0-6-6.05q-4.1-2.29-11-2.29-10.47,0-15.21,5.07t-4.75,13.58a21.42,21.42,0,0,0,.33,4.58H707.91q0-18.31,5.4-28.8t13.91-15.54a48.52,48.52,0,0,1,19-6.39,171.1,171.1,0,0,1,20.94-1.3q5.9,0,12.77.49a117.48,117.48,0,0,1,13.74,1.8,81.27,81.27,0,0,1,13.42,3.76,47.11,47.11,0,0,1,11.78,6.38,25,25,0,0,1,7.37,9.49A60.9,60.9,0,0,1,830,428.29a66,66,0,0,1,1.47,12.11c.11,4,.17,7.69.17,11V541.7a114,114,0,0,0,1.14,15.71,141.8,141.8,0,0,0,2.78,14.72Zm-3.27-76.58a34,34,0,0,0-17-4.26q-13.1,0-18.66,5.57t-5.56,22.25q0,13.42,4.26,19.15T765.84,544a26.81,26.81,0,0,0,13.75-3.44,19.52,19.52,0,0,0,8.51-10.64Z"/><path class="cls-2" d="M877.77,572.13V398h44.51v19.31q6.87-12.43,18.33-17.51a60.74,60.74,0,0,1,24.87-5.07q2.63,0,6.06.32a42.54,42.54,0,0,1,6.05,1v38.62a49.22,49.22,0,0,0-18-3.6,53.15,53.15,0,0,0-13.25,1.64,34.25,34.25,0,0,0-11.62,5.4,31.57,31.57,0,0,0-8.67,9.49,28.31,28.31,0,0,0-3.77,13.58v111Z"/><path class="cls-2" d="M1010.65,572.13V403.75h44.83V572.13Z"/><path class="cls-2" d="M1176.57,572.79q-5.57,1-12.92,1.63t-15.22.66q-12.77,0-21.27-3.27a35.43,35.43,0,0,1-13.42-8.51,29.2,29.2,0,0,1-6.88-11.95,49.22,49.22,0,0,1-2-13.91V429.11h-18.66V398h18.66V345.65h44.51V398h29.46v31.09h-29.46v95.57q0,8.18,2.62,13.42t12.11,5.23c2,0,4.14-.1,6.54-.33a31.73,31.73,0,0,0,5.89-1Z"/><text class="cls-3" transform="translate(702.02 679.31)">Studio</text></g></svg>